# xmcd
#
# Track frame offsets:
# 150
# 16773
# 34029
# 50460
# 66521
# 78431
# 95133
# 117436
# 132862
# 149444
# 170666
# 189141
# 206552
#
# Disc length: 3007 seconds
#
#
# Revision: 0
# Processed by: cddbd v1.5PL3 Copyright (c) Steve Scherf et al.
# Submitted via: FreeRIP 2.53 
#
DISCID=b70bbd0d
DTITLE=Herndon, Ty - This Is
DYEAR=1900
DGENRE=
TTITLE0=What Mattered Most
TTITLE1=Living In A Moment
TTITLE2=Steam
TTITLE3=It Must Be Love
TTITLE4=Hands Of A Working Man
TTITLE5=Loved Too Much
TTITLE6=Heart Half Empty
TTITLE7=I Want My Goodbye Back
TTITLE8=Man Holding On To A Woman Letting Go
TTITLE9=You Can Leave Your Hat On
TTITLE10=If The Road Runs Out
TTITLE11=Few Short Years
TTITLE12=I'd Move Heaven And Earth
EXTD=
EXTT0=
EXTT1=
EXTT2=
EXTT3=
EXTT4=
EXTT5=
EXTT6=
EXTT7=
EXTT8=
EXTT9=
EXTT10=
EXTT11=
EXTT12=
PLAYORDER=
